<svg width="47" height="47" viewBox="0 0 47 47" fill="none" xmlns="http://www.w3.org/2000/svg">
<path d="M8.875 25.875C11.2083 28.2083 14.0417 29.375 17.375 29.375C20.7083 29.375 23.5417 28.2083 25.875 25.875C28.2083 23.5417 29.375 20.7083 29.375 17.375C29.375 14.0417 28.2083 11.2083 25.875 8.875C23.5417 6.54167 20.7083 5.375 17.375 5.375C14.0417 5.375 11.2083 6.54167 8.875 8.875C6.54167 11.2083 5.375 14.0417 5.375 17.375C5.375 20.7083 6.54167 23.5417 8.875 25.875ZM33.375 29.375L46.625 42.625L42.625 46.625L29.375 33.375V31.25L28.625 30.5C25.4583 33.25 21.7083 34.625 17.375 34.625C12.5417 34.625 8.41667 32.9583 5 29.625C1.66667 26.2917 0 22.2083 0 17.375C0 12.5417 1.66667 8.45833 5 5.125C8.41667 1.70833 12.5417 0 17.375 0C22.2083 0 26.2917 1.70833 29.625 5.125C32.9583 8.45833 34.625 12.5417 34.625 17.375C34.625 19.125 34.2083 21.125 33.375 23.375C32.5417 25.5417 31.5833 27.2917 30.5 28.625L31.25 29.375H33.375Z" fill="#D88208"/>
</svg>
