<svg width="24" height="24" viewBox="0 0 24 24" fill="none" xmlns="http://www.w3.org/2000/svg">
<path fill-rule="evenodd" clip-rule="evenodd" d="M21.3904 4.49423C22.4185 4.771 23.229 5.58155 23.5058 6.60956C24 8.48765 24 12.3822 24 12.3822C24 12.3822 24 16.2768 23.5058 18.1549C23.229 19.1829 22.4185 19.9934 21.3904 20.2702C19.5124 20.7644 12 20.7644 12 20.7644C12 20.7644 4.48765 20.7644 2.60956 20.2702C1.58155 19.9934 0.771005 19.1829 0.494234 18.1549C0 16.2965 0 12.3822 0 12.3822C0 12.3822 0 8.48765 0.494234 6.60956C0.771005 5.58155 1.58155 4.771 2.60956 4.49423C4.48765 4 12 4 12 4C12 4 19.5124 4 21.3904 4.49423ZM15.8353 12.402L9.58814 16V8.78422L15.8353 12.402Z" fill="#FAFAFA"/>
</svg>
